# xmcd
#
# Track frame offsets:
#	150
#	19741
#	39403
#	60226
#	79646
#	98348
#	133451
#	154297
#	172630
#	193206
#	207929
#	225341
#	239477
#	254873
#	272664
#	292077
#	317544
#
# Disc length: 4475 seconds
#
# Revision: 3
# Processed by: cddbd v1.5.2PL0 Copyright (c) Steve Scherf et al.
# Submitted via: EasyCDDAExtractor 15.3.0.1
#
DISCID=e7117911
DTITLE=Thalia - Primera Fila ...Un Año Despues
DYEAR=2010
DGENRE=Latin
TTITLE0=Consiendome El Corazon
TTITLE1=Enseñame A Vivir
TTITLE2=Que Sera De Ti
TTITLE3=Como
TTITLE4=El Proximo Viernes
TTITLE5=Medley (Entre El Mar Y Una Estrella, Piel Morena, No Me Enseñaste, Amo
TTITLE5=r A La Mexicana)
TTITLE6=Estoy Enamorado (Dueto Con Pedro Capo)
TTITLE7=Equivocada
TTITLE8=Brindis
TTITLE9=Con La Duda (Dueto Con Joan Sebastian)
TTITLE10=Cuando Te Beso
TTITLE11=Ya Lo Sabia
TTITLE12=Mujeres
TTITLE13=Ay Amor
TTITLE14=Pienso En Ti
TTITLE15=Enseñame A Vivir (Dance Remix)
TTITLE16=Equivocada (Bachata Version)
EXTD=
EXTT0=
EXTT1=
EXTT2=
EXTT3=
EXTT4=
EXTT5=
EXTT6=
EXTT7=
EXTT8=
EXTT9=
EXTT10=
EXTT11=
EXTT12=
EXTT13=
EXTT14=
EXTT15=
EXTT16=
PLAYORDER=
